name rise30.3154peak39.0474fall46.5389.mot
datacolumns 19
datarows 26
range 14.98161100000000 15.02327500000000
endheader
time	ground_force1_vx	ground_force1_vy	ground_force1_vz	ground_force1_px	ground_force1_py	ground_force1_pz	ground_force2_vx	ground_force2_vy	ground_force2_vz	ground_force2_px	ground_force2_py	ground_force2_pz	ground_torque1_x	ground_torque1_y	ground_torque1_z	ground_torque2_x	ground_torque2_y	ground_torque2_z	
14.98161100000000	-7.39869600000000	42.88626700000000	-11.64353500000000	0.34207700000000	0.00000000000000	0.06572300000000	-51.50377700000000	774.74920999999995	-52.30465800000000	0.15791400000000	0.00000000000000	-0.09800100000000	0.00000000000000	-8.94032900000000	0.00000000000000	0.00000000000000	-23.80080400000000	0.00000000000000	
14.98328000000000	-8.08612700000000	50.52008100000000	-13.11197700000000	0.34567700000000	0.00000000000000	0.06710500000000	-51.83156300000000	772.23045600000000	-52.17692500000000	0.15698700000000	0.00000000000000	-0.09804600000000	0.00000000000000	-10.12346900000000	0.00000000000000	0.00000000000000	-23.71787200000000	0.00000000000000	
14.98495000000000	-8.62512300000000	58.31366200000000	-14.45333900000000	0.34901900000000	0.00000000000000	0.06832900000000	-52.17116100000000	769.61375699999996	-52.03172700000000	0.15605500000000	0.00000000000000	-0.09808800000000	0.00000000000000	-11.22140400000000	0.00000000000000	0.00000000000000	-23.63424200000000	0.00000000000000	
14.98661000000000	-8.99511500000000	66.17047900000000	-15.63695300000000	0.35215300000000	0.00000000000000	0.06942100000000	-52.52263000000000	766.89770999999996	-51.86844400000000	0.15512100000000	0.00000000000000	-0.09812800000000	0.00000000000000	-12.20992100000000	0.00000000000000	0.00000000000000	-23.54994300000000	0.00000000000000	
14.98828000000000	-9.18392900000000	74.01537800000000	-16.64239700000000	0.35511400000000	0.00000000000000	0.07040300000000	-52.88595300000000	764.08084199999996	-51.68645900000000	0.15418400000000	0.00000000000000	-0.09816400000000	0.00000000000000	-13.07247600000000	0.00000000000000	0.00000000000000	-23.46499500000000	0.00000000000000	
14.98994700000000	-9.18764800000000	81.79711300000000	-17.45964000000000	0.35793200000000	0.00000000000000	0.07129300000000	-53.26103300000000	761.16161299999999	-51.48515500000000	0.15324700000000	0.00000000000000	-0.09819800000000	0.00000000000000	-13.80041300000000	0.00000000000000	0.00000000000000	-23.37940400000000	0.00000000000000	
14.99161500000000	-9.00982500000000	89.48848400000000	-18.08832400000000	0.36063000000000	0.00000000000000	0.07210400000000	-53.64769500000000	758.13842199999999	-51.26392000000000	0.15231000000000	0.00000000000000	-0.09822800000000	0.00000000000000	-14.39250800000000	0.00000000000000	0.00000000000000	-23.29316700000000	0.00000000000000	
14.99328100000000	-8.66022000000000	97.08447099999999	-18.53637500000000	0.36322700000000	0.00000000000000	0.07284600000000	-54.04568300000000	755.00960599999996	-51.02215400000000	0.15137500000000	0.00000000000000	-0.09825500000000	0.00000000000000	-14.85397400000000	0.00000000000000	0.00000000000000	-23.20626600000000	0.00000000000000	
14.99495000000000	-8.15324600000000	104.59885800000001	-18.81817600000000	0.36573700000000	0.00000000000000	0.07353000000000	-54.45466100000000	751.77344600000004	-50.75926700000000	0.15044300000000	0.00000000000000	-0.09827800000000	0.00000000000000	-15.19511000000000	0.00000000000000	0.00000000000000	-23.11867200000000	0.00000000000000	
14.99661400000000	-7.50631100000000	112.05989599999999	-18.95252200000000	0.36817200000000	0.00000000000000	0.07416200000000	-54.87421000000000	748.42817000000002	-50.47468400000000	0.14951600000000	0.00000000000000	-0.09829700000000	0.00000000000000	-15.42977100000000	0.00000000000000	0.00000000000000	-23.03034600000000	0.00000000000000	
14.99827700000000	-6.73820000000000	119.50552900000000	-18.96058000000000	0.37054300000000	0.00000000000000	0.07474900000000	-55.30382700000000	744.97195999999997	-50.16785000000000	0.14859500000000	0.00000000000000	-0.09831200000000	0.00000000000000	-15.57379800000000	0.00000000000000	0.00000000000000	-22.94123500000000	0.00000000000000	
14.99994600000000	-5.86762900000000	126.97865400000001	-18.86400400000000	0.37285600000000	0.00000000000000	0.07529600000000	-55.74292800000000	741.40295500000002	-49.83823400000000	0.14768200000000	0.00000000000000	-0.09832300000000	0.00000000000000	-15.64356000000000	0.00000000000000	0.00000000000000	-22.85127300000000	0.00000000000000	
15.00160900000000	-4.91205000000000	134.52277599999999	-18.68333500000000	0.37512000000000	0.00000000000000	0.07580700000000	-56.19084800000000	737.71925999999996	-49.48533000000000	0.14677700000000	0.00000000000000	-0.09832900000000	0.00000000000000	-15.65470100000000	0.00000000000000	0.00000000000000	-22.76038600000000	0.00000000000000	
15.00328400000000	-3.88677000000000	142.17834300000001	-18.43676600000000	0.37733900000000	0.00000000000000	0.07628700000000	-56.64683700000000	733.91894800000000	-49.10866400000000	0.14588400000000	0.00000000000000	-0.09832900000000	0.00000000000000	-15.62114600000000	0.00000000000000	0.00000000000000	-22.66848400000000	0.00000000000000	
15.00494400000000	-2.80437800000000	149.97991999999999	-18.13929600000000	0.37951800000000	0.00000000000000	0.07673800000000	-57.11006700000000	730.00007000000005	-48.70779500000000	0.14500200000000	0.00000000000000	-0.09832500000000	0.00000000000000	-15.55441400000000	0.00000000000000	0.00000000000000	-22.57546900000000	0.00000000000000	
15.00661600000000	-1.67449300000000	157.95426599999999	-17.80227800000000	0.38166000000000	0.00000000000000	0.07716300000000	-57.57962700000000	725.96066399999995	-48.28232000000000	0.14413400000000	0.00000000000000	-0.09831600000000	0.00000000000000	-15.46322600000000	0.00000000000000	0.00000000000000	-22.48122900000000	0.00000000000000	
15.00827800000000	-0.50377400000000	166.11930500000000	-17.43331800000000	0.38376900000000	0.00000000000000	0.07756400000000	-58.05452800000000	721.79875800000002	-47.83187900000000	0.14328100000000	0.00000000000000	-0.09830100000000	0.00000000000000	-15.35338900000000	0.00000000000000	0.00000000000000	-22.38564200000000	0.00000000000000	
15.00994300000000	0.70384600000000	174.48389900000001	-17.03647400000000	0.38584700000000	0.00000000000000	0.07794500000000	-58.53370600000000	717.51238300000000	-47.35615800000000	0.14244500000000	0.00000000000000	-0.09828000000000	0.00000000000000	-15.22792200000000	0.00000000000000	0.00000000000000	-22.28857500000000	0.00000000000000	
15.01160900000000	1.94675700000000	183.04830400000000	-16.61268400000000	0.38789600000000	0.00000000000000	0.07830600000000	-59.01601600000000	713.09957799999995	-46.85489200000000	0.14162700000000	0.00000000000000	-0.09825400000000	0.00000000000000	-15.08735900000000	0.00000000000000	0.00000000000000	-22.18988300000000	0.00000000000000	
15.01328100000000	3.22517300000000	191.80513500000001	-16.16035000000000	0.38991800000000	0.00000000000000	0.07864900000000	-59.50024600000000	708.55840400000000	-46.32786900000000	0.14082900000000	0.00000000000000	-0.09822100000000	0.00000000000000	-14.93019000000000	0.00000000000000	0.00000000000000	-22.08941000000000	0.00000000000000	
15.01494600000000	4.54057800000000	200.74068800000001	-15.67600200000000	0.39191400000000	0.00000000000000	0.07897600000000	-59.98510800000000	703.88694999999996	-45.77493300000000	0.14005200000000	0.00000000000000	-0.09818200000000	0.00000000000000	-14.75337000000000	0.00000000000000	0.00000000000000	-21.98699100000000	0.00000000000000	
15.01660900000000	5.89517900000000	209.83644400000000	-15.15498500000000	0.39388500000000	0.00000000000000	0.07928800000000	-60.46924800000000	699.08334600000001	-45.19598800000000	0.13929900000000	0.00000000000000	-0.09813600000000	0.00000000000000	-14.55285000000000	0.00000000000000	0.00000000000000	-21.88244900000000	0.00000000000000	
15.01828400000000	7.29140500000000	219.07062300000001	-14.59210700000000	0.39583200000000	0.00000000000000	0.07958600000000	-60.95124700000000	694.14577499999996	-44.59100100000000	0.13857000000000	0.00000000000000	-0.09808300000000	0.00000000000000	-14.32409400000000	0.00000000000000	0.00000000000000	-21.77559900000000	0.00000000000000	
15.01994700000000	8.73146900000000	228.41964999999999	-13.98221100000000	0.39775500000000	0.00000000000000	0.07987100000000	-61.42962500000000	689.07248400000003	-43.96000600000000	0.13786600000000	0.00000000000000	-0.09802400000000	0.00000000000000	-14.06252900000000	0.00000000000000	0.00000000000000	-21.66624300000000	0.00000000000000	
15.02161200000000	10.21703200000000	237.85945899999999	-13.32064800000000	0.39965500000000	0.00000000000000	0.08014400000000	-61.90284100000000	683.86179800000002	-43.30310200000000	0.13719000000000	0.00000000000000	-0.09795800000000	0.00000000000000	-13.76393100000000	0.00000000000000	0.00000000000000	-21.55417800000000	0.00000000000000	
15.02327500000000	11.74895800000000	247.36655800000000	-12.60361700000000	0.40153100000000	0.00000000000000	0.08040600000000	-62.36930400000000	678.51213499999994	-42.62046100000000	0.13654300000000	0.00000000000000	-0.09788400000000	0.00000000000000	-13.42471200000000	0.00000000000000	0.00000000000000	-21.43918800000000	0.00000000000000	
